{"asset":{"version":"2.0","generator":"babylon.js glTF exporter for 3dsmax 2022 v20210811.2"},"scene":0,"scenes":[{"nodes":[0]}],"nodes":[{"mesh":0,"translation":[-3.0,7.62939436E-08,4.371139E-08],"name":"Door"}],"meshes":[{"primitives":[{"attributes":{"POSITION":1,"NORMAL":2,"COLOR_0":3,"TEXCOORD_0":4,"TEXCOORD_1":5},"indices":0}],"name":"Door"}],"accessors":[{"bufferView":0,"componentType":5123,"count":1584,"type":"SCALAR","name":"accessorIndices"},{"bufferView":1,"componentType":5126,"count":691,"max":[1.0,2.0,0.105829924],"min":[0.0,-7.62939436E-08,-0.105829634],"type":"VEC3","name":"accessorPositions"},{"bufferView":1,"byteOffset":8292,"componentType":5126,"count":691,"type":"VEC3","name":"accessorNormals"},{"bufferView":2,"componentType":5126,"count":691,"type":"VEC4","name":"accessorColors"},{"bufferView":3,"componentType":5126,"count":691,"type":"VEC2","name":"accessorUVs"},{"bufferView":3,"byteOffset":5528,"componentType":5126,"count":691,"type":"VEC2","name":"accessorUV2s"}],"bufferViews":[{"buffer":0,"byteLength":3168,"name":"bufferViewScalar"},{"buffer":0,"byteOffset":3168,"byteLength":16584,"byteStride":12,"name":"bufferViewFloatVec3"},{"buffer":0,"byteOffset":19752,"byteLength":11056,"byteStride":16,"name":"bufferViewFloatVec4"},{"buffer":0,"byteOffset":30808,"byteLength":11056,"byteStride":8,"name":"bufferViewFloatVec2"}],"buffers":[{"uri":"door.bin","byteLength":41864}]}