{"asset":{"version":"2.0","generator":"babylon.js glTF exporter for 3dsmax 2022 v20210811.2"},"scene":0,"scenes":[{"nodes":[0]}],"nodes":[{"mesh":0,"translation":[0.0,0.0,1.90734859E-08],"name":"Wall"}],"meshes":[{"primitives":[{"attributes":{"POSITION":1,"NORMAL":2,"COLOR_0":3,"TEXCOORD_0":4},"indices":0}],"name":"Wall"}],"accessors":[{"bufferView":0,"componentType":5123,"count":6330,"type":"SCALAR","name":"accessorIndices"},{"bufferView":1,"componentType":5126,"count":4222,"max":[1.0,2.0,5.040759E-08],"min":[0.0,0.0,-0.0938805938],"type":"VEC3","name":"accessorPositions"},{"bufferView":1,"byteOffset":50664,"componentType":5126,"count":4222,"type":"VEC3","name":"accessorNormals"},{"bufferView":2,"componentType":5126,"count":4222,"type":"VEC4","name":"accessorColors"},{"bufferView":3,"componentType":5126,"count":4222,"type":"VEC2","name":"accessorUVs"}],"bufferViews":[{"buffer":0,"byteLength":12660,"name":"bufferViewScalar"},{"buffer":0,"byteOffset":12660,"byteLength":101328,"byteStride":12,"name":"bufferViewFloatVec3"},{"buffer":0,"byteOffset":113988,"byteLength":67552,"byteStride":16,"name":"bufferViewFloatVec4"},{"buffer":0,"byteOffset":181540,"byteLength":33776,"byteStride":8,"name":"bufferViewFloatVec2"}],"buffers":[{"uri":"wall.bin","byteLength":215316}]}