{"asset":{"version":"2.0","generator":"babylon.js glTF exporter for 3dsmax 2022 v20210811.2"},"scene":0,"scenes":[{"nodes":[0]}],"nodes":[{"mesh":0,"translation":[1.49999964,0.0,1.43051144E-08],"name":"Window"}],"meshes":[{"primitives":[{"attributes":{"POSITION":1,"NORMAL":2,"COLOR_0":3,"TEXCOORD_0":4},"indices":0}],"name":"Window"}],"accessors":[{"bufferView":0,"componentType":5123,"count":378,"type":"SCALAR","name":"accessorIndices"},{"bufferView":1,"componentType":5126,"count":211,"max":[1.0,2.0,0.07497793],"min":[0.0,0.0,-0.174977913],"type":"VEC3","name":"accessorPositions"},{"bufferView":1,"byteOffset":2532,"componentType":5126,"count":211,"type":"VEC3","name":"accessorNormals"},{"bufferView":2,"componentType":5126,"count":211,"type":"VEC4","name":"accessorColors"},{"bufferView":3,"componentType":5126,"count":211,"type":"VEC2","name":"accessorUVs"}],"bufferViews":[{"buffer":0,"byteLength":756,"name":"bufferViewScalar"},{"buffer":0,"byteOffset":756,"byteLength":5064,"byteStride":12,"name":"bufferViewFloatVec3"},{"buffer":0,"byteOffset":5820,"byteLength":3376,"byteStride":16,"name":"bufferViewFloatVec4"},{"buffer":0,"byteOffset":9196,"byteLength":1688,"byteStride":8,"name":"bufferViewFloatVec2"}],"buffers":[{"uri":"window.bin","byteLength":10884}]}